<?xml version="1.0" encoding="utf-8"?>
<!-- Generator: Adobe Illustrator 25.0.0, SVG Export Plug-In . SVG Version: 6.00 Build 0)  -->
<svg version="1.1" id="Layer_1" xmlns="http://www.w3.org/2000/svg" xmlns:xlink="http://www.w3.org/1999/xlink" x="0px" y="0px"
	 viewBox="0 0 2385.4 30" style="enable-background:new 0 0 2385.4 30;" xml:space="preserve">
<style type="text/css">
	.st0{fill:#D01257;}
</style>
<path class="st0" d="M-29,22.9c38.9,0,78.5-0.1,116.7-0.1c13.3,0,26.5,0,39.8-0.1c39.5-0.1,72.4-0.1,103.6-0.2
	c5.5,0,11-0.1,14.9-0.1c9.1-0.2,18.6-0.2,31.9-0.1c4.1,0,13,0.1,18.1,0c8.9-0.2,17.7-0.2,30.7,0c5.8,0.1,12.9,0.1,22,0
	c23.9-0.4,49.7-0.4,86.2-0.1h2.8c18.4-0.3,33.9-0.3,50,0c1.1,0,2.4,0,3.6,0c1.2,0,2.1,0,2.5-0.1l3.3-0.3c0.5,0-0.1-0.1-1.5-0.1
	c-3.3-0.1-7.3-0.1-10.8-0.1c-4.2,0-6,0-6.8-0.1c1.4,0,2.8-0.1,4.1-0.1c4.7-0.1,8.8-0.2,13.2-0.3c3.2,0,7.3-0.1,8.2,0
	c3.3,0.1,6.9,0.1,10.4,0.2c8.4,0.1,15.6,0.2,17,0.5c0.1,0,0.8,0.1,1.7,0.1c0.9,0,2.1,0,3.2,0l23.3-0.1c1.4,0,2.5,0,2.9-0.1
	c0.5,0,0.3-0.1-0.6-0.1c-2.2-0.1-4.1-0.2-5.9-0.3c-4-0.2-7.4-0.3-12.1-0.4c-4.8-0.1-10.4-0.2-16.3-0.3c-0.4,0-0.9,0-1.3,0l12.3-0.2
	c1.6,0,2.4-0.1,2.1-0.1h-0.1c19.6,0,38.8-0.1,57.6-0.1c4.6,0,9.2,0,13.8-0.1c7.6,0,13.9,0,20,0l-10.4,0.3c-1,0-1.4,0.1-1,0.1
	s1.5,0.1,2.9,0.1c10.6,0.1,12,0.2,12,0.4c0,0.1-0.6,0.2-1.2,0.3c-0.3,0-0.6,0.1-0.8,0.1c-0.1,0,0.1,0.1,0.7,0.1
	c10.9,0.4,25.5,0.4,38.3,0.4c5.5,0,10.8,0,15.6,0l-1.4,0.2c-0.2,0,0.1,0.1,0.9,0.1s1.9,0,3.1,0h44.5c1.9,0,3.5,0,4-0.1
	c0.4,0-0.5-0.1-2.2-0.1c-11.1-0.1-15.2-0.4-14.5-0.7h5.3c-2.1,0.1-3.3,0.2-1.9,0.4c0.4,0,1.3,0.1,2.5,0.1c0.5,0,1,0,1.5,0
	c1.8,0,4.3,0.1,6.9,0c8.6-0.1,16-0.1,24.1,0.1c3.2,0.1,7.7,0.1,14.3,0c9.1,0,15,0,19.7,0.2c5.1,0.2,13.1,0.3,23.9,0.3h9.3h16.5h5.8
	c7.4,0,17.4,0,22-0.3h3.7h35.6h14.9h10c10.4,0,21.2,0,31.9-0.1c1.4,0,2.1-0.1,1.9-0.1c-0.6-0.1-2.3-0.2-3.9-0.3
	c-1.6-0.1-3.2-0.2-3.2-0.3c0,0,0.4-0.1,3.2-0.2l7,0.1c1.3,0,3,0,4.4,0l8.3-0.1c0.6,0,1.1,0.1,1.7,0.1c2.5,0.2,4.9,0.4,10.1,0.4
	c8.8,0.1,15.5,0.3,22.6,0.4l3.2,0.1c1.9,0,4.1,0,6.1,0h2.2c2.1,0,4.1,0,4.5-0.1l1.8-0.3l20.8,0l1.7,0.3c0.4,0.1,2.6,0.1,4.8,0.1h3.1
	c2.4,0,5,0,7.4,0c12.6-0.1,25-0.1,39.1,0c6.6,0.1,13.7,0,20.5,0h8.5c1.8,0,3.3,0,3.9-0.1l1.3-0.1c0.6,0-0.1-0.1-1.8-0.1
	c-1.4,0-2.7,0-4.1-0.1c-3.2-0.1-6.5-0.1-10.1-0.2c-4.1,0-8.5-0.1-12.7-0.1c-7.9,0-12.5,0-15.4-0.2c-0.5,0-2.2-0.1-3.4-0.1
	c-2.4,0-7.4,0-10.1,0c-9.9,0.2-21.2,0.2-36.7,0c-9.2-0.1-20.8-0.2-30.9,0.1l-7.9-0.3c3.7,0,7.7,0,11.9,0c10.4,0.1,20,0.1,28.6-0.2
	c0.8,0,1.2-0.1,1.2-0.1c-0.1,0-0.6-0.1-1.5-0.1l-13.6-0.3c6.7-0.1,13.3-0.1,20.4,0c20.2,0.1,43.6,0.3,66.3,0.4
	c19.4,0.1,37.7,0,55.4-0.1c1.9,0,3.2-0.1,3.1-0.1c-0.1-0.1-1.6-0.1-3.6-0.1l-13.2,0c10.9,0,21.7,0,33.1,0c8.6,0,17.5,0.1,26.4,0
	c5.6,0,13.3,0,16.9,0.1c15.8,0.4,34.7,0.5,57.8,0.4c2.8,0,5-0.1,7.3-0.1c1.1,0,2.2,0,3.6-0.1c1.4,0,2-0.1,1.6-0.1
	c-0.1,0-0.4,0-0.7,0c6.3,0,12.4,0.1,18.3,0.2l-3.4,0.1c-0.4,0-0.6,0-0.6,0.1c0,0,0.1,0,0.2,0c0.3,0,1.1,0.1,2.1,0.1
	c21.2,0.3,30.2,0.3,46.5,0.1l9,0c1.2,0,2.5,0,3.4,0s1.5-0.1,1.4-0.1l-0.1-0.1c0,0-0.6-0.1-1.5-0.1c-0.9,0-2.1,0-3.3,0l-8.8,0
	c-0.2,0-0.3,0-0.5,0c-0.1,0-0.2,0-0.4,0l-31.4-0.3c4.8-0.1,10.9-0.1,19.4-0.1h2.6c6.4,0,13,0.1,19.6,0.1c13.7,0,25.8,0.1,37.1,0.3
	c14.3,0.3,29.2,0.2,48.5,0.1c1.7,0,3,0,3.3-0.1c0.4,0-0.3-0.1-1.7-0.1l-7.3-0.1c6.6,0,12.8,0,18.7,0h9.6c-0.4,0-0.8,0-0.8,0.1
	c0,0,0,0,0.1,0l4.2,0.4c0.5,0.1,2.4,0.1,4.4,0.1c4.3,0,8.5,0,12.4,0c8.3,0,16.1-0.1,23.7-0.1c7.4,0,15.1,0,22.5,0
	c3.4,0,6.8,0,10.2,0c1.9,0,3.6,0,4.2-0.1s-0.1-0.1-1.7-0.1c-14.1-0.3-29.1-0.3-43.5-0.3c-7.8,0-15.7,0-23.6-0.1
	c42.9,0,85.9,0.1,128.8,0.1h1.8h4.3c24.6,0.4,51.2,0.4,74.6,0.3c9.5,0,13.4,0.1,16.3,0.4c5.3,0.5,26.2,0.9,44.7,0.8
	c12.7-0.1,23.6,0,34.3,0.2c1.5,0,3.6,0,5,0c7.4-0.2,7.4-0.2,11.9-0.1c0.8,0,1.7,0,2.6,0c4.1,0.1,7.9,0.1,11.3,0.1
	c6.4-0.1,12.8-0.1,20.3,0c3.8,0,7.7,0,11.8,0c8.8,0,17.9,0,26.7,0c8.2,0,16.8,0,25.3,0h4.6c10.9,0,21.2,0,30.5,0.2
	c2.2,0,4.7,0,6.7,0h1.4c6.4,0,12.9,0,19.3,0c14.2,0,28.9-0.1,42.6,0c15.2,0.1,26-0.1,37.5-0.2l5-0.1c8.4-0.1,18-0.1,26.3-0.1
	c3.7,0,7.3,0,10.8,0c7.8-0.1,12.1-0.1,16.1,0.1c1.7,0.1,4.8,0.1,7.6,0c5.8,0,11.5,0,17.3,0c13.5,0,27.4-0.1,41-0.1
	c18.5-0.1,36.5-0.3,53.3-0.4c4.9,0,10.3-0.3,10.3-0.4c0,0-0.1,0-0.2,0c-1.3-0.1-9.3-0.3-14.9-0.3c-5.4,0-10.7,0-16,0
	c2.8,0,5.6,0,8.6-0.1c8.8-0.1,17.6-0.1,26.5-0.1c5.4,0,10.8-0.1,16.2-0.1c-0.2,0-0.5,0-0.7,0c-0.6,0-1.2,0-1.8,0c-1,0-1.7,0-2,0.1
	c-0.1,0-0.2,0-0.2,0c0,0,0.2,0,0.5,0.1c12.5,0.7,17,0.7,39.5,0.5c6.1,0,12.2-0.1,18.4-0.1c7.6,0,15.5-0.1,23.1-0.2
	c9.5-0.1,18.8-0.2,27.8-0.3c3.5,0,7-0.1,10.5-0.1h2c1.5,0,3,0,4.6,0c4.5,0,9.1,0,13.6-0.1c20.8-0.2,45.4-0.4,70.5-0.7
	c5.6-0.1,20.1-0.3,22.3-0.3l29-0.2h-1c-1.1,0-2,0-2.5,0.1c-0.3,0-0.4,0-0.4,0s0.1,0,0.3,0l1.6,0.1c0.4,0,1.3,0.1,2.4,0.1h3.4
	l7.1-0.1c1.9,0,2.7-0.1,1.8-0.1l-1.1-0.1c-0.6,0-1.7-0.1-2.9-0.1l10.2-0.1c1.3,0,3.1-0.1,2.3-0.2c-1.5-0.1-2.7-0.1-3.7-0.1
	c-2.3-0.1-4.2-0.2-7.6-0.2s-6.4,0-8.8,0c-3.7,0.1-4.5,0.2-5.1,0.3c-0.1,0-0.1,0-0.2,0c-1.9,0-3.7,0-5.4,0c-5.4,0-10.1-0.1-15-0.1
	c-8,0-15.7,0.1-23.7,0.2c-1.4,0-2.8,0-4.2,0c-7.6,0.1-16.3,0.1-22,0.4c-0.7,0-0.8,0.1-0.2,0.1s1.8,0.1,3.2,0.1h1.5l-32.3,0.3
	l-15.9-0.3c-1.1,0-2.5,0-3.7,0c-1.2,0-2.1,0-2.4,0.1c-0.5,0.1-0.7,0.1-0.9,0.2c-0.6,0.1-0.9,0.2-4.8,0.2c-4.9,0-8.3,0.1-11.7,0.3
	c-0.8,0-2.1,0-2.9,0l-5.2,0l10.6-0.2c1.8,0,2.2-0.1,0.9-0.2l-3.3-0.1c-0.7,0-1.7,0-2.8,0s-2.3,0-3.2,0l-13.2,0.3
	c-1,0-1.5,0.1-1.5,0.1s0.3,0,0.8,0.1c-4.5,0-8.9-0.1-13.4-0.1c-5.3,0-11,0-16.4,0c-8.8,0-17.7,0.1-26.6,0.1c2,0,4,0,5.9-0.1
	c15.3-0.1,31.3-0.3,46.8-0.4c11.7-0.1,23.7-0.2,35.5-0.3c34.3-0.3,69-0.7,102.6-1l40.9-0.4c11.4-0.1,22.9-0.2,34.2-0.4
	c11.6-0.1,23.1-0.3,35.8-0.4l17.9-0.2c1.5,0,2.5-0.1,2.6-0.1c0,0-0.8-0.1-2.2-0.1c-16.5-0.3-46.6,0-46.4-0.1
	c0.3-0.1-1.6-0.3-5.9-0.4c-1,0-39,0.3-39,0.3c-1.2,0-2.1,0-2.6,0.1c-7.8,0.5-10.2,0.6-28.7,0.5c2.6-0.3,9.6-0.4,21.8-0.5
	c36.5-0.4,75.1-0.8,124.9-1.3c15.7-0.2,73.5-1.1,73.4-1.1c-0.1,0-62.2,0.5-81.7,0.7l2-0.2c0.5-0.1-0.4-0.1-2.2-0.1
	c-6.1-0.1-10.6-0.1-14.1,0c-4.6,0.1-5.4,0.2-6.1,0.4c-0.1,0-0.3,0.1-0.5,0.1c-1.2,0-2.4,0-3.5-0.1c-4.6-0.1-0.2-0.3,5.8-0.4
	c5.1-0.1,10-0.2,15.2-0.3c1,0,1.9,0,2.3-0.1c0.5,0,0.5-0.1,0.2-0.1l-1.4-0.1c-0.4,0-1.1,0-2.1-0.1c-1,0-2.1,0-3.1,0l-45.7,0.5
	c-1.7,0-2.7,0.1-2.7,0.1c0,0,0,0,0.1,0l1.6,0.2c0.1,0-6.4-0.1-10-0.1l-1.4,0c-1.1,0-2.5,0-3.7,0c-1.9,0-44,0.3-59.7,0.3
	c-6.3,0-12.7,0-19.5,0c-1.7,0-3.2,0-3.7,0.1c-0.5,0,0.1,0.1,1.5,0.1l4.1,0.1c1.3,0,2.1,0,2.8,0.1c-3.4,0-29.7-0.1-36.5,0
	c0,0-0.1,0-0.3,0c-0.7,0-2.4-0.1-4.2-0.1c-2.9,0-5.4,0-7.5,0c-4.5,0-8,0-10.9,0.1c-9.9,0.2-20.2,0.2-33.3,0.1
	c7.2-0.1,14.5-0.2,21.8-0.3c2.1,0,4.9,0,8.1,0c4.7,0,9.5,0,14.2,0c8.3,0,16.5,0,24.8,0c3,0,5.5,0,8.1-0.1c1.1,0,5.7-0.1,5.8-0.1
	c0.2,0-0.6-0.1-1.8-0.1c0,0,2.8-0.1,6.4-0.2c8-0.1,17.7-0.1,21.9-0.5l5.9,0.1c1,0,2.2,0,3.3,0c1.1,0,2.1,0,2.6-0.1
	c0,0,11.2-0.7,10.3-0.8c-0.8,0-2.3-0.1-3.7,0c-14.5,0-28.2,0.1-41.5,0.3c-12.1,0.1-24.5,0.2-37.8,0.3c13.6-0.3,26-0.4,39.7-0.5
	c3,0,6,0,8.6-0.1c4.3-0.1,8.5-0.1,12.8-0.2c6.6-0.1,13.1-0.2,19.9-0.3c1.8,0,3.7,0,5.6-0.1c8.4-0.1,17.2-0.2,23.7-0.4
	c0.9,0,1.1-0.1,0.5-0.1s-2-0.1-3.5-0.1c-13.1,0-25.3,0.1-37.2,0.2c4.3-0.1,8.3-0.1,11.3-0.3c0.7,0,0.8-0.1,0.3-0.1s-1.5-0.1-2.7-0.1
	c-15.3-0.1-28.7,0-41.7,0.1c-2.4,0-1,0,1.9-0.1c11.5-0.2,22.1-0.4,35.3-0.4c10.6,0,23.9-0.3,30.3-0.6c0.7,0,0.7-0.1-0.2-0.1
	c-0.6,0-1.5,0-2.5,0c2.9,0,5.9,0,8.8,0c8.7,0,17.6-0.1,25.3-0.2c1.5,0,2.2-0.1,1.8-0.1l-1.2-0.1c-0.5-0.1-2.6-0.1-4.7-0.1
	l-100.8,0.3c10.5-0.1,21.7-0.2,33.6-0.3c14.2-0.1,28.9-0.2,42.4-0.4c1.3,0,1.9-0.1,2-0.1c0,0-0.8-0.1-2.1-0.1
	c-16.3-0.3-30.7-0.4-47.5-0.3c-5,0-13.8,0-14.9-0.1c-7.9-0.4-19.2-0.4-29.2-0.4h-3.3c-6,0-12.2,0-18.1,0l6.8-0.1
	c1.1,0,1.9,0,2.1-0.1c0.2,0-0.2-0.1-1.1-0.1c-7.9-0.3-17-0.2-24.4-0.2c-3,0-5.7,0-8.2,0c5.4,0,10.8-0.1,16-0.1
	c16.2-0.1,47.5-0.5,47.1-0.6c0,0-2.8-0.2-4.8-0.2H2430c2.9,0,5.9-0.1,8.9-0.1c11.8-0.1,24-0.2,34.3-0.5c2.5-0.1,7.2-0.1,13.1-0.1
	c3.5,0,7.4,0,11.6-0.1c1.9,0,3.2-0.1,3.1-0.1c-0.1-0.1-1.6-0.1-3.6-0.1c-4.2,0-8,0-11.5,0c-7.7,0-13.8,0-19.9-0.1
	c-5.5,0-6.9-0.1-6.9-0.1c-6.9-0.4-20.1-0.5-32.1-0.5h0.9c1.5,0,2.2-0.1,1.9-0.1c-2.5-0.4-9.9-0.5-17.6-0.5c17.4,0,35.3,0,48.7-0.5
	c0.9,0,1.1-0.1,0.7-0.1s-1.5-0.1-2.9-0.1l-34.4-0.3l10.7,0c1.1,0,2.1,0,2.8,0c0.7,0,1-0.1,0.8-0.1c-0.9-0.2-3.1-0.3-6.7-0.4
	c-4.9-0.1-10.9-0.1-15.8,0c-0.7,0-1.7,0-2.4-0.1c-4.6-0.3-10.1-0.4-22.5-0.5c-9.6-0.1-19.1-0.2-28.6-0.3
	c-15.3-0.2-31.1-0.3-46.9-0.5l-6.7-0.1c-28.4-0.3-57.8-0.5-87.4-0.7c-57-0.4-117.3-0.4-170.4-0.4c-46,0-92.8,0-138,0
	c-19.3,0-38.7,0-58,0h-16.3c-15.9,0-32.3,0-48.5,0c-21.7,0-43.3,0.1-64.9,0.1c-17.4,0-34.9,0.1-52.3,0.1c-17.4,0-34.8,0-52.2,0.1
	c-25.2,0-51.3,0.1-76.9,0.1c-20.9,0-41.8,0.1-62.7,0.1c-26.8,0.1-54.5,0.1-81.7,0.1c-27.8,0-56.1,0.1-83.5,0.1
	c-23.3,0-47.4,0-71.1,0.1c-73.3,0.1-149.7,0.2-227.1,0.3c-30.6,0-61-0.1-90.5-0.3c-9.1,0-18.1-0.1-27.2-0.1
	C791,0.7,692.4,0.7,599.5,1c-36.7,0.1-74.2,0.3-110.4,0.4c-27.3,0.1-54.7,0.2-82,0.3C339.8,2,283.6,2.2,230.5,2.4
	c-16.6,0.1-33.2,0.1-49.8,0.2C153.5,2.8,125.3,2.9,97.5,3C58,3.1,26.1,3.3-2.9,3.6c-3.1,0-6.8,0-10.7,0c-1.2,0-2.5,0-3.7,0
	 M632.6,29.6c1.2,0,2.5,0,3.7,0l-11.5,0.2c-1.3,0-2.1,0.1-1.7,0.1h-4l-0.6-0.4C623.4,29.6,627.7,29.6,632.6,29.6z M1806.7,22.3
	c2.4,0,5.3-0.1,8.8-0.1h0.8C1813.1,22.2,1809.9,22.3,1806.7,22.3L1806.7,22.3z"/>
</svg>
